<?xml version="1.0" encoding="UTF-8"?>
<svg xmlns="http://www.w3.org/2000/svg" width="1024" height="1024" viewBox="0 0 1024 1024">
<rect width="100%" height="100%" fill="#ffffff"/>
<path d="M 664 592 L 643 628 L 621 659 L 620 657 L 623 652 L 635 617 L 639 596 L 637 596 L 629 614 L 601 665 L 539 762 L 525 787 L 519 801 L 512 824 L 510 838 L 511 850 L 522 816 L 540 780 L 569 737 L 614 683 L 635 655 L 653 625 L 662 604 L 665 594 Z M 263 501 L 262 509 L 267 517 L 280 526 L 287 528 L 294 528 L 297 526 L 297 514 L 293 508 L 279 499 L 271 497 Z M 417 461 L 406 460 L 400 462 L 395 466 L 390 474 L 390 490 L 393 498 L 399 506 L 410 494 L 425 481 L 427 477 L 427 469 Z M 371 283 L 371 292 L 375 293 L 377 288 Z M 388 276 L 383 279 L 387 283 L 383 289 L 384 290 L 388 287 Z M 406 273 L 401 272 L 394 276 L 398 280 L 405 276 Z M 421 268 L 418 268 L 415 271 L 416 276 L 422 274 L 423 271 Z M 437 265 L 434 265 L 431 268 L 432 273 L 436 273 L 439 270 L 439 267 Z M 755 93 L 702 132 L 632 162 L 557 138 L 474 135 L 399 151 L 348 180 L 307 148 L 284 110 L 269 115 L 259 141 L 253 189 L 277 255 L 278 320 L 236 326 L 225 344 L 252 374 L 239 396 L 272 408 L 286 437 L 272 462 L 232 474 L 227 514 L 270 594 L 301 622 L 322 621 L 348 688 L 360 688 L 369 715 L 383 706 L 382 764 L 407 722 L 413 725 L 424 783 L 464 835 L 434 755 L 475 782 L 428 704 L 447 713 L 478 749 L 516 753 L 489 741 L 532 722 L 485 728 L 461 692 L 501 689 L 480 680 L 517 670 L 502 662 L 570 641 L 551 641 L 608 611 L 611 620 L 625 597 L 676 564 L 667 559 L 715 537 L 704 529 L 721 523 L 705 502 L 738 527 L 754 589 L 769 526 L 774 583 L 779 574 L 785 586 L 771 620 L 554 830 L 513 885 L 499 923 L 577 828 L 734 692 L 798 625 L 810 593 L 789 548 L 871 538 L 899 523 L 914 503 L 914 481 L 893 453 L 823 413 L 868 391 L 860 376 L 822 357 L 867 329 L 874 313 L 790 288 L 819 262 L 815 250 L 736 241 L 767 160 L 766 112 Z M 747 111 L 752 116 L 754 121 L 753 148 L 748 173 L 739 199 L 730 217 L 721 231 L 710 244 L 710 236 L 734 187 L 743 151 L 741 151 L 736 165 L 729 179 L 723 187 L 718 185 L 710 178 L 709 179 L 718 195 L 718 199 L 710 208 L 693 194 L 692 195 L 702 209 L 706 218 L 703 229 L 700 227 L 691 213 L 674 194 L 645 172 L 655 166 L 683 156 L 710 143 L 732 128 L 746 114 Z M 280 126 L 286 141 L 302 164 L 320 180 L 338 191 L 320 203 L 301 223 L 290 212 L 281 197 L 279 197 L 284 213 L 295 231 L 290 241 L 287 239 L 278 223 L 272 206 L 269 190 L 270 156 L 273 142 L 278 128 Z M 368 182 L 378 175 L 409 161 L 439 153 L 466 149 L 495 147 L 534 148 L 558 151 L 587 158 L 628 177 L 647 191 L 667 211 L 691 248 L 707 289 L 706 290 L 695 276 L 681 248 L 661 219 L 643 201 L 630 191 L 609 179 L 591 172 L 576 168 L 570 169 L 583 187 L 591 204 L 603 247 L 602 253 L 586 248 L 559 246 L 561 217 L 557 212 L 550 212 L 533 218 L 498 238 L 494 212 L 484 187 L 474 178 L 460 172 L 443 169 L 422 169 L 401 172 L 380 178 L 370 183 Z M 486 195 L 490 207 L 489 217 L 482 200 L 476 192 L 475 193 L 479 199 L 485 216 L 490 239 L 490 247 L 482 254 L 478 249 L 470 215 L 465 202 L 461 198 L 451 194 L 440 192 L 418 192 L 397 196 L 372 205 L 344 222 L 332 233 L 324 244 L 318 256 L 315 267 L 314 293 L 321 325 L 321 329 L 319 329 L 313 320 L 304 299 L 301 284 L 301 262 L 304 250 L 311 236 L 332 213 L 350 200 L 366 191 L 383 184 L 415 176 L 437 175 L 459 179 L 475 185 Z M 435 215 L 438 219 L 441 228 L 442 239 L 422 243 L 421 241 L 425 230 Z M 460 220 L 463 228 L 463 237 L 448 239 L 448 232 Z M 603 267 L 590 278 L 571 288 L 560 292 L 546 294 L 545 293 L 561 283 L 562 282 L 560 281 L 531 293 L 503 308 L 490 317 L 468 338 L 451 363 L 441 372 L 429 376 L 421 374 L 415 368 L 414 360 L 417 352 L 432 336 L 441 320 L 462 291 L 492 260 L 509 246 L 530 232 L 548 223 L 551 224 L 547 245 L 541 261 L 542 262 L 559 258 L 572 258 L 594 262 Z M 412 225 L 417 235 L 417 243 L 405 249 L 391 253 L 390 251 L 399 235 L 408 225 Z M 369 233 L 378 256 L 367 262 L 359 264 L 358 263 L 363 244 L 367 234 Z M 465 256 L 466 268 L 464 273 L 453 284 L 423 289 L 397 296 L 357 313 L 334 325 L 332 323 L 332 318 L 334 314 L 358 300 L 363 293 L 363 289 L 359 287 L 333 299 L 328 300 L 327 298 L 339 286 L 356 275 L 389 260 L 411 253 L 426 250 L 455 249 L 460 251 Z M 609 255 L 610 254 L 627 257 L 646 263 L 673 276 L 693 291 L 691 292 L 648 271 L 630 265 L 615 262 L 611 259 Z M 718 260 L 721 258 L 735 256 L 773 256 L 791 258 L 799 261 L 773 277 L 749 289 L 728 289 L 723 271 Z M 855 318 L 781 360 L 849 386 L 797 405 L 756 408 L 719 392 L 748 376 L 725 370 L 731 362 L 712 362 L 759 348 L 743 345 L 763 336 L 702 345 L 660 370 L 705 373 L 659 397 L 701 413 L 692 421 L 663 418 L 692 441 L 701 482 L 683 462 L 688 482 L 668 466 L 685 490 L 658 482 L 679 504 L 652 499 L 670 514 L 637 509 L 659 528 L 626 533 L 648 542 L 609 549 L 622 562 L 593 561 L 610 574 L 576 576 L 597 587 L 582 587 L 587 594 L 554 596 L 580 611 L 536 603 L 546 613 L 532 613 L 545 621 L 511 617 L 522 629 L 489 617 L 513 642 L 475 630 L 486 649 L 462 639 L 477 660 L 435 637 L 452 660 L 425 647 L 435 671 L 417 660 L 420 668 L 393 643 L 395 671 L 372 643 L 373 664 L 337 601 L 417 582 L 474 594 L 488 568 L 540 553 L 589 503 L 601 515 L 603 448 L 631 433 L 587 426 L 554 443 L 580 440 L 537 497 L 461 529 L 405 565 L 334 586 L 309 607 L 272 568 L 257 539 L 274 543 L 243 509 L 243 489 L 253 480 L 298 484 L 291 474 L 380 442 L 356 475 L 407 438 L 444 458 L 443 494 L 456 468 L 450 449 L 426 430 L 390 431 L 376 420 L 462 394 L 461 411 L 506 426 L 506 434 L 567 390 L 620 376 L 587 365 L 587 348 L 603 341 L 540 339 L 477 358 L 506 338 L 550 328 L 495 335 L 541 304 L 584 293 L 664 302 L 625 331 L 673 311 L 741 301 Z M 452 392 L 417 401 L 383 414 L 374 414 L 366 408 L 374 402 L 367 396 L 365 392 L 363 379 L 361 375 L 358 392 L 355 398 L 352 400 L 335 385 L 322 378 L 284 370 L 262 361 L 247 348 L 245 345 L 245 341 L 249 337 L 254 336 L 279 336 L 296 338 L 327 345 L 355 358 L 356 357 L 347 348 L 336 342 L 357 328 L 390 312 L 414 304 L 441 299 L 441 303 L 430 330 L 425 336 L 418 338 L 411 345 L 407 355 L 407 371 L 411 380 L 417 385 L 409 387 L 399 384 L 392 376 L 390 365 L 385 353 L 385 376 L 388 383 L 392 387 L 404 392 L 439 389 Z M 542 349 L 548 348 L 556 353 L 558 361 L 555 365 L 549 366 L 540 359 L 539 354 Z M 564 349 L 570 350 L 576 355 L 576 361 L 572 366 L 569 364 L 563 352 Z M 498 367 L 508 366 L 512 381 L 517 389 L 524 395 L 535 401 L 530 407 L 523 412 L 512 416 L 494 416 L 485 412 L 478 404 L 476 395 L 480 383 L 489 373 Z M 280 387 L 280 391 L 275 394 L 262 393 L 252 389 L 257 385 L 269 381 L 275 381 Z M 289 386 L 296 385 L 313 388 L 326 393 L 335 401 L 325 403 L 303 412 L 294 414 L 290 403 Z M 706 403 L 710 402 L 728 406 L 753 416 L 758 421 L 761 427 L 761 436 L 756 447 L 753 450 L 752 449 L 751 437 L 746 428 L 719 414 Z M 346 417 L 353 417 L 358 422 L 359 429 L 356 433 L 350 433 L 344 428 L 343 421 Z M 313 419 L 318 417 L 329 418 L 333 432 L 340 442 L 340 444 L 336 448 L 324 450 L 315 443 L 309 431 L 309 425 Z M 771 418 L 785 424 L 812 444 L 808 447 L 775 455 L 780 458 L 784 463 L 789 480 L 788 482 L 757 475 L 751 472 L 747 467 L 747 464 L 760 454 L 767 444 L 770 434 Z M 805 422 L 830 430 L 862 446 L 877 456 L 893 472 L 899 483 L 900 495 L 896 505 L 890 512 L 872 524 L 847 532 L 810 536 L 787 535 L 784 533 L 786 531 L 793 529 L 829 527 L 850 523 L 862 519 L 874 513 L 882 505 L 886 497 L 885 482 L 881 475 L 872 465 L 849 448 L 805 424 Z M 701 431 L 704 428 L 714 424 L 731 424 L 742 433 L 745 441 L 744 449 L 739 455 L 733 457 L 711 457 L 707 445 L 701 434 Z M 715 463 L 731 462 L 740 467 L 744 476 L 745 483 L 744 496 L 741 503 L 731 494 L 718 477 L 714 469 Z M 580 469 L 583 473 L 584 479 L 583 488 L 579 497 L 576 500 L 573 500 L 567 490 L 567 483 Z M 755 486 L 761 492 L 764 498 L 764 504 L 754 526 L 753 520 Z M 559 489 L 564 493 L 566 499 L 565 510 L 557 518 L 548 518 L 544 514 L 542 506 Z M 537 512 L 545 522 L 545 531 L 540 540 L 529 548 L 525 548 L 520 543 L 519 551 L 514 557 L 504 560 L 496 559 L 493 555 L 493 551 L 515 534 L 517 537 L 518 531 Z M 475 536 L 479 544 L 479 569 L 476 579 L 470 585 L 465 586 L 458 583 L 453 578 L 448 566 L 447 551 L 457 541 L 469 536 Z M 437 571 L 434 575 L 429 576 L 423 574 L 417 568 L 432 561 L 435 564 Z" fill="#000000" fill-rule="evenodd" stroke="none"/>
<path d="M 263 501 L 262 509 L 267 517 L 280 526 L 287 528 L 294 528 L 297 526 L 297 514 L 293 508 L 279 499 L 271 497 Z M 417 461 L 406 460 L 400 462 L 395 466 L 390 474 L 390 490 L 393 498 L 399 506 L 410 494 L 425 481 L 427 477 L 427 469 Z M 371 283 L 371 292 L 375 293 L 377 288 Z M 388 276 L 383 279 L 387 283 L 383 289 L 384 290 L 388 287 Z M 406 273 L 401 272 L 394 276 L 398 280 L 405 276 Z M 421 268 L 418 268 L 415 271 L 416 276 L 422 274 L 423 271 Z M 437 265 L 434 265 L 431 268 L 432 273 L 436 273 L 439 270 L 439 267 Z M 755 93 L 702 132 L 632 162 L 557 138 L 474 135 L 399 151 L 348 180 L 307 148 L 284 110 L 269 115 L 259 141 L 253 189 L 277 255 L 278 320 L 236 326 L 225 344 L 252 374 L 239 396 L 272 408 L 286 437 L 272 462 L 232 474 L 227 514 L 270 594 L 301 622 L 322 621 L 348 688 L 360 688 L 369 715 L 383 706 L 382 764 L 407 722 L 413 725 L 424 783 L 464 835 L 434 755 L 475 782 L 428 704 L 447 713 L 478 749 L 516 753 L 489 741 L 532 722 L 485 728 L 461 692 L 501 689 L 480 680 L 517 670 L 502 662 L 570 641 L 551 641 L 608 611 L 611 620 L 625 597 L 676 564 L 667 559 L 715 537 L 704 529 L 721 523 L 705 502 L 738 527 L 754 589 L 769 526 L 774 583 L 779 574 L 785 586 L 771 620 L 554 830 L 513 885 L 499 923 L 577 828 L 734 692 L 798 625 L 810 593 L 789 548 L 871 538 L 899 523 L 914 503 L 914 481 L 893 453 L 823 413 L 868 391 L 860 376 L 822 357 L 867 329 L 874 313 L 790 288 L 819 262 L 815 250 L 736 241 L 767 160 L 766 112 Z M 747 111 L 752 116 L 754 121 L 753 148 L 748 173 L 739 199 L 730 217 L 721 231 L 710 244 L 710 236 L 734 187 L 743 151 L 741 151 L 736 165 L 729 179 L 723 187 L 718 185 L 710 178 L 709 179 L 718 195 L 718 199 L 710 208 L 693 194 L 692 195 L 702 209 L 706 218 L 703 229 L 700 227 L 691 213 L 674 194 L 645 172 L 655 166 L 683 156 L 710 143 L 732 128 L 746 114 Z M 280 126 L 286 141 L 302 164 L 320 180 L 338 191 L 320 203 L 301 223 L 290 212 L 281 197 L 279 197 L 284 213 L 295 231 L 290 241 L 287 239 L 278 223 L 272 206 L 269 190 L 270 156 L 273 142 L 278 128 Z M 368 182 L 378 175 L 409 161 L 439 153 L 466 149 L 495 147 L 534 148 L 558 151 L 587 158 L 628 177 L 647 191 L 667 211 L 691 248 L 707 289 L 706 290 L 695 276 L 681 248 L 661 219 L 643 201 L 630 191 L 609 179 L 591 172 L 576 168 L 570 169 L 583 187 L 591 204 L 603 247 L 602 253 L 586 248 L 559 246 L 561 217 L 557 212 L 550 212 L 533 218 L 498 238 L 494 212 L 484 187 L 474 178 L 460 172 L 443 169 L 422 169 L 401 172 L 380 178 L 370 183 Z M 486 195 L 490 207 L 489 217 L 482 200 L 476 192 L 475 193 L 479 199 L 485 216 L 490 239 L 490 247 L 482 254 L 478 249 L 470 215 L 465 202 L 461 198 L 451 194 L 440 192 L 418 192 L 397 196 L 372 205 L 344 222 L 332 233 L 324 244 L 318 256 L 315 267 L 314 293 L 321 325 L 321 329 L 319 329 L 313 320 L 304 299 L 301 284 L 301 262 L 304 250 L 311 236 L 332 213 L 350 200 L 366 191 L 383 184 L 415 176 L 437 175 L 459 179 L 475 185 Z M 435 215 L 438 219 L 441 228 L 442 239 L 422 243 L 421 241 L 425 230 Z M 460 220 L 463 228 L 463 237 L 448 239 L 448 232 Z M 603 267 L 590 278 L 571 288 L 560 292 L 546 294 L 545 293 L 561 283 L 562 282 L 560 281 L 531 293 L 503 308 L 490 317 L 468 338 L 451 363 L 441 372 L 429 376 L 421 374 L 415 368 L 414 360 L 417 352 L 432 336 L 441 320 L 462 291 L 492 260 L 509 246 L 530 232 L 548 223 L 551 224 L 547 245 L 541 261 L 542 262 L 559 258 L 572 258 L 594 262 Z M 412 225 L 417 235 L 417 243 L 405 249 L 391 253 L 390 251 L 399 235 L 408 225 Z M 369 233 L 378 256 L 367 262 L 359 264 L 358 263 L 363 244 L 367 234 Z M 465 256 L 466 268 L 464 273 L 453 284 L 423 289 L 397 296 L 357 313 L 334 325 L 332 323 L 332 318 L 334 314 L 358 300 L 363 293 L 363 289 L 359 287 L 333 299 L 328 300 L 327 298 L 339 286 L 356 275 L 389 260 L 411 253 L 426 250 L 455 249 L 460 251 Z M 609 255 L 610 254 L 627 257 L 646 263 L 673 276 L 693 291 L 691 292 L 648 271 L 630 265 L 615 262 L 611 259 Z M 718 260 L 721 258 L 735 256 L 773 256 L 791 258 L 799 261 L 773 277 L 749 289 L 728 289 L 723 271 Z M 855 318 L 781 360 L 849 386 L 797 405 L 756 408 L 719 392 L 748 376 L 725 370 L 731 362 L 712 362 L 759 348 L 743 345 L 763 336 L 702 345 L 660 370 L 705 373 L 659 397 L 701 413 L 692 421 L 663 418 L 692 441 L 701 482 L 683 462 L 688 482 L 668 466 L 685 490 L 658 482 L 679 504 L 652 499 L 670 514 L 637 509 L 659 528 L 626 533 L 648 542 L 609 549 L 622 562 L 593 561 L 610 574 L 576 576 L 597 587 L 582 587 L 587 594 L 554 596 L 580 611 L 536 603 L 546 613 L 532 613 L 545 621 L 511 617 L 522 629 L 489 617 L 513 642 L 475 630 L 486 649 L 462 639 L 477 660 L 435 637 L 452 660 L 425 647 L 435 671 L 417 660 L 420 668 L 393 643 L 395 671 L 372 643 L 373 664 L 337 601 L 417 582 L 474 594 L 488 568 L 540 553 L 589 503 L 601 515 L 603 448 L 631 433 L 587 426 L 554 443 L 580 440 L 537 497 L 461 529 L 405 565 L 334 586 L 309 607 L 272 568 L 257 539 L 274 543 L 243 509 L 243 489 L 253 480 L 298 484 L 291 474 L 380 442 L 356 475 L 407 438 L 444 458 L 443 494 L 456 468 L 450 449 L 426 430 L 390 431 L 376 420 L 462 394 L 461 411 L 506 426 L 506 434 L 567 390 L 620 376 L 587 365 L 587 348 L 603 341 L 540 339 L 477 358 L 506 338 L 550 328 L 495 335 L 541 304 L 584 293 L 664 302 L 625 331 L 673 311 L 741 301 Z M 452 392 L 417 401 L 383 414 L 374 414 L 366 408 L 374 402 L 367 396 L 365 392 L 363 379 L 361 375 L 358 392 L 355 398 L 352 400 L 335 385 L 322 378 L 284 370 L 262 361 L 247 348 L 245 345 L 245 341 L 249 337 L 254 336 L 279 336 L 296 338 L 327 345 L 355 358 L 356 357 L 347 348 L 336 342 L 357 328 L 390 312 L 414 304 L 441 299 L 441 303 L 430 330 L 425 336 L 418 338 L 411 345 L 407 355 L 407 371 L 411 380 L 417 385 L 409 387 L 399 384 L 392 376 L 390 365 L 385 353 L 385 376 L 388 383 L 392 387 L 404 392 L 439 389 Z M 542 349 L 548 348 L 556 353 L 558 361 L 555 365 L 549 366 L 540 359 L 539 354 Z M 564 349 L 570 350 L 576 355 L 576 361 L 572 366 L 569 364 L 563 352 Z M 498 367 L 508 366 L 512 381 L 517 389 L 524 395 L 535 401 L 530 407 L 523 412 L 512 416 L 494 416 L 485 412 L 478 404 L 476 395 L 480 383 L 489 373 Z M 280 387 L 280 391 L 275 394 L 262 393 L 252 389 L 257 385 L 269 381 L 275 381 Z M 289 386 L 296 385 L 313 388 L 326 393 L 335 401 L 325 403 L 303 412 L 294 414 L 290 403 Z M 706 403 L 710 402 L 728 406 L 753 416 L 758 421 L 761 427 L 761 436 L 756 447 L 753 450 L 752 449 L 751 437 L 746 428 L 719 414 Z M 346 417 L 353 417 L 358 422 L 359 429 L 356 433 L 350 433 L 344 428 L 343 421 Z M 313 419 L 318 417 L 329 418 L 333 432 L 340 442 L 340 444 L 336 448 L 324 450 L 315 443 L 309 431 L 309 425 Z M 771 418 L 785 424 L 812 444 L 808 447 L 775 455 L 780 458 L 784 463 L 789 480 L 788 482 L 757 475 L 751 472 L 747 467 L 747 464 L 760 454 L 767 444 L 770 434 Z M 805 422 L 830 430 L 862 446 L 877 456 L 893 472 L 899 483 L 900 495 L 896 505 L 890 512 L 872 524 L 847 532 L 810 536 L 787 535 L 784 533 L 786 531 L 793 529 L 829 527 L 850 523 L 862 519 L 874 513 L 882 505 L 886 497 L 885 482 L 881 475 L 872 465 L 849 448 L 805 424 Z M 701 431 L 704 428 L 714 424 L 731 424 L 742 433 L 745 441 L 744 449 L 739 455 L 733 457 L 711 457 L 707 445 L 701 434 Z M 715 463 L 731 462 L 740 467 L 744 476 L 745 483 L 744 496 L 741 503 L 731 494 L 718 477 L 714 469 Z M 580 469 L 583 473 L 584 479 L 583 488 L 579 497 L 576 500 L 573 500 L 567 490 L 567 483 Z M 755 486 L 761 492 L 764 498 L 764 504 L 754 526 L 753 520 Z M 559 489 L 564 493 L 566 499 L 565 510 L 557 518 L 548 518 L 544 514 L 542 506 Z M 537 512 L 545 522 L 545 531 L 540 540 L 529 548 L 525 548 L 520 543 L 519 551 L 514 557 L 504 560 L 496 559 L 493 555 L 493 551 L 515 534 L 517 537 L 518 531 Z M 475 536 L 479 544 L 479 569 L 476 579 L 470 585 L 465 586 L 458 583 L 453 578 L 448 566 L 447 551 L 457 541 L 469 536 Z M 437 571 L 434 575 L 429 576 L 423 574 L 417 568 L 432 561 L 435 564 Z" fill="#000000" fill-rule="evenodd" stroke="none"/>
<path d="M 417 461 L 406 460 L 400 462 L 395 466 L 390 474 L 390 490 L 393 498 L 399 506 L 410 494 L 425 481 L 427 477 L 427 469 Z M 371 283 L 371 292 L 375 293 L 377 288 Z M 388 276 L 383 279 L 387 283 L 383 289 L 384 290 L 388 287 Z M 406 273 L 401 272 L 394 276 L 398 280 L 405 276 Z M 421 268 L 418 268 L 415 271 L 416 276 L 422 274 L 423 271 Z M 437 265 L 434 265 L 431 268 L 432 273 L 436 273 L 439 270 L 439 267 Z M 755 93 L 702 132 L 632 162 L 557 138 L 474 135 L 399 151 L 348 180 L 307 148 L 284 110 L 269 115 L 259 141 L 253 189 L 277 255 L 278 320 L 236 326 L 225 344 L 252 374 L 239 396 L 272 408 L 286 437 L 272 462 L 232 474 L 227 514 L 270 594 L 301 622 L 322 621 L 348 688 L 360 688 L 369 715 L 383 706 L 382 764 L 407 722 L 413 725 L 424 783 L 464 835 L 434 755 L 475 782 L 428 704 L 447 713 L 478 749 L 516 753 L 489 741 L 532 722 L 485 728 L 461 692 L 501 689 L 480 680 L 517 670 L 502 662 L 570 641 L 551 641 L 608 611 L 611 620 L 625 597 L 676 564 L 667 559 L 715 537 L 704 529 L 721 523 L 705 502 L 738 527 L 754 589 L 769 526 L 774 583 L 779 574 L 785 586 L 771 620 L 554 830 L 513 885 L 499 923 L 577 828 L 734 692 L 798 625 L 810 593 L 789 548 L 871 538 L 899 523 L 914 503 L 914 481 L 893 453 L 823 413 L 868 391 L 860 376 L 822 357 L 867 329 L 874 313 L 790 288 L 819 262 L 815 250 L 736 241 L 767 160 L 766 112 Z M 747 111 L 752 116 L 754 121 L 753 148 L 748 173 L 739 199 L 730 217 L 721 231 L 710 244 L 710 236 L 734 187 L 743 151 L 741 151 L 736 165 L 729 179 L 723 187 L 718 185 L 710 178 L 709 179 L 718 195 L 718 199 L 710 208 L 693 194 L 692 195 L 702 209 L 706 218 L 703 229 L 700 227 L 691 213 L 674 194 L 645 172 L 655 166 L 683 156 L 710 143 L 732 128 L 746 114 Z M 280 126 L 286 141 L 302 164 L 320 180 L 338 191 L 320 203 L 301 223 L 290 212 L 281 197 L 279 197 L 284 213 L 295 231 L 290 241 L 287 239 L 278 223 L 272 206 L 269 190 L 270 156 L 273 142 L 278 128 Z M 368 182 L 378 175 L 409 161 L 439 153 L 466 149 L 495 147 L 534 148 L 558 151 L 587 158 L 628 177 L 647 191 L 667 211 L 691 248 L 707 289 L 706 290 L 695 276 L 681 248 L 661 219 L 643 201 L 630 191 L 609 179 L 591 172 L 576 168 L 570 169 L 583 187 L 591 204 L 603 247 L 602 253 L 586 248 L 559 246 L 561 217 L 557 212 L 550 212 L 533 218 L 498 238 L 494 212 L 484 187 L 474 178 L 460 172 L 443 169 L 422 169 L 401 172 L 380 178 L 370 183 Z M 486 195 L 490 207 L 489 217 L 482 200 L 476 192 L 475 193 L 479 199 L 485 216 L 490 239 L 490 247 L 482 254 L 478 249 L 470 215 L 465 202 L 461 198 L 451 194 L 440 192 L 418 192 L 397 196 L 372 205 L 344 222 L 332 233 L 324 244 L 318 256 L 315 267 L 314 293 L 321 325 L 321 329 L 319 329 L 313 320 L 304 299 L 301 284 L 301 262 L 304 250 L 311 236 L 332 213 L 350 200 L 366 191 L 383 184 L 415 176 L 437 175 L 459 179 L 475 185 Z M 435 215 L 438 219 L 441 228 L 442 239 L 422 243 L 421 241 L 425 230 Z M 460 220 L 463 228 L 463 237 L 448 239 L 448 232 Z M 603 267 L 590 278 L 571 288 L 560 292 L 546 294 L 545 293 L 561 283 L 562 282 L 560 281 L 531 293 L 503 308 L 490 317 L 468 338 L 451 363 L 441 372 L 429 376 L 421 374 L 415 368 L 414 360 L 417 352 L 432 336 L 441 320 L 462 291 L 492 260 L 509 246 L 530 232 L 548 223 L 551 224 L 547 245 L 541 261 L 542 262 L 559 258 L 572 258 L 594 262 Z M 412 225 L 417 235 L 417 243 L 405 249 L 391 253 L 390 251 L 399 235 L 408 225 Z M 369 233 L 378 256 L 367 262 L 359 264 L 358 263 L 363 244 L 367 234 Z M 465 256 L 466 268 L 464 273 L 453 284 L 423 289 L 397 296 L 357 313 L 334 325 L 332 323 L 332 318 L 334 314 L 358 300 L 363 293 L 363 289 L 359 287 L 333 299 L 328 300 L 327 298 L 339 286 L 356 275 L 389 260 L 411 253 L 426 250 L 455 249 L 460 251 Z M 609 255 L 610 254 L 627 257 L 646 263 L 673 276 L 693 291 L 691 292 L 648 271 L 630 265 L 615 262 L 611 259 Z M 718 260 L 721 258 L 735 256 L 773 256 L 791 258 L 799 261 L 773 277 L 749 289 L 728 289 L 723 271 Z M 855 318 L 781 360 L 849 386 L 797 405 L 756 408 L 719 392 L 748 376 L 725 370 L 731 362 L 712 362 L 759 348 L 743 345 L 763 336 L 702 345 L 660 370 L 705 373 L 659 397 L 701 413 L 692 421 L 663 418 L 692 441 L 701 482 L 683 462 L 688 482 L 668 466 L 685 490 L 658 482 L 679 504 L 652 499 L 670 514 L 637 509 L 659 528 L 626 533 L 648 542 L 609 549 L 622 562 L 593 561 L 610 574 L 576 576 L 597 587 L 582 587 L 587 594 L 554 596 L 580 611 L 536 603 L 546 613 L 532 613 L 545 621 L 511 617 L 522 629 L 489 617 L 513 642 L 475 630 L 486 649 L 462 639 L 477 660 L 435 637 L 452 660 L 425 647 L 435 671 L 417 660 L 420 668 L 393 643 L 395 671 L 372 643 L 373 664 L 337 601 L 417 582 L 474 594 L 488 568 L 540 553 L 589 503 L 601 515 L 603 448 L 631 433 L 587 426 L 554 443 L 580 440 L 537 497 L 461 529 L 405 565 L 334 586 L 309 607 L 272 568 L 257 539 L 274 543 L 243 509 L 243 489 L 253 480 L 298 484 L 291 474 L 380 442 L 356 475 L 407 438 L 444 458 L 443 494 L 456 468 L 450 449 L 426 430 L 390 431 L 376 420 L 462 394 L 461 411 L 506 426 L 506 434 L 567 390 L 620 376 L 587 365 L 587 348 L 603 341 L 540 339 L 477 358 L 506 338 L 550 328 L 495 335 L 541 304 L 584 293 L 664 302 L 625 331 L 673 311 L 741 301 Z M 452 392 L 417 401 L 383 414 L 374 414 L 366 408 L 374 402 L 367 396 L 365 392 L 363 379 L 361 375 L 358 392 L 355 398 L 352 400 L 335 385 L 322 378 L 284 370 L 262 361 L 247 348 L 245 345 L 245 341 L 249 337 L 254 336 L 279 336 L 296 338 L 327 345 L 355 358 L 356 357 L 347 348 L 336 342 L 357 328 L 390 312 L 414 304 L 441 299 L 441 303 L 430 330 L 425 336 L 418 338 L 411 345 L 407 355 L 407 371 L 411 380 L 417 385 L 409 387 L 399 384 L 392 376 L 390 365 L 385 353 L 385 376 L 388 383 L 392 387 L 404 392 L 439 389 Z M 542 349 L 548 348 L 556 353 L 558 361 L 555 365 L 549 366 L 540 359 L 539 354 Z M 564 349 L 570 350 L 576 355 L 576 361 L 572 366 L 569 364 L 563 352 Z M 498 367 L 508 366 L 512 381 L 517 389 L 524 395 L 535 401 L 530 407 L 523 412 L 512 416 L 494 416 L 485 412 L 478 404 L 476 395 L 480 383 L 489 373 Z M 280 387 L 280 391 L 275 394 L 262 393 L 252 389 L 257 385 L 269 381 L 275 381 Z M 289 386 L 296 385 L 313 388 L 326 393 L 335 401 L 325 403 L 303 412 L 294 414 L 290 403 Z M 706 403 L 710 402 L 728 406 L 753 416 L 758 421 L 761 427 L 761 436 L 756 447 L 753 450 L 752 449 L 751 437 L 746 428 L 719 414 Z M 346 417 L 353 417 L 358 422 L 359 429 L 356 433 L 350 433 L 344 428 L 343 421 Z M 313 419 L 318 417 L 329 418 L 333 432 L 340 442 L 340 444 L 336 448 L 324 450 L 315 443 L 309 431 L 309 425 Z M 771 418 L 785 424 L 812 444 L 808 447 L 775 455 L 780 458 L 784 463 L 789 480 L 788 482 L 757 475 L 751 472 L 747 467 L 747 464 L 760 454 L 767 444 L 770 434 Z M 805 422 L 830 430 L 862 446 L 877 456 L 893 472 L 899 483 L 900 495 L 896 505 L 890 512 L 872 524 L 847 532 L 810 536 L 787 535 L 784 533 L 786 531 L 793 529 L 829 527 L 850 523 L 862 519 L 874 513 L 882 505 L 886 497 L 885 482 L 881 475 L 872 465 L 849 448 L 805 424 Z M 701 431 L 704 428 L 714 424 L 731 424 L 742 433 L 745 441 L 744 449 L 739 455 L 733 457 L 711 457 L 707 445 L 701 434 Z M 715 463 L 731 462 L 740 467 L 744 476 L 745 483 L 744 496 L 741 503 L 731 494 L 718 477 L 714 469 Z M 580 469 L 583 473 L 584 479 L 583 488 L 579 497 L 576 500 L 573 500 L 567 490 L 567 483 Z M 755 486 L 761 492 L 764 498 L 764 504 L 754 526 L 753 520 Z M 559 489 L 564 493 L 566 499 L 565 510 L 557 518 L 548 518 L 544 514 L 542 506 Z M 537 512 L 545 522 L 545 531 L 540 540 L 529 548 L 525 548 L 520 543 L 519 551 L 514 557 L 504 560 L 496 559 L 493 555 L 493 551 L 515 534 L 517 537 L 518 531 Z M 475 536 L 479 544 L 479 569 L 476 579 L 470 585 L 465 586 L 458 583 L 453 578 L 448 566 L 447 551 L 457 541 L 469 536 Z M 437 571 L 434 575 L 429 576 L 423 574 L 417 568 L 432 561 L 435 564 Z" fill="#000000" fill-rule="evenodd" stroke="none"/>
<path d="M 406 273 L 401 272 L 394 276 L 398 280 L 405 276 Z M 421 268 L 418 268 L 415 271 L 416 276 L 422 274 L 423 271 Z M 437 265 L 434 265 L 431 268 L 432 273 L 436 273 L 439 270 L 439 267 Z M 755 93 L 702 132 L 632 162 L 557 138 L 474 135 L 399 151 L 348 180 L 307 148 L 284 110 L 269 115 L 259 141 L 253 189 L 277 255 L 278 320 L 236 326 L 225 344 L 252 374 L 239 396 L 272 408 L 286 437 L 272 462 L 232 474 L 227 514 L 270 594 L 301 622 L 322 621 L 348 688 L 360 688 L 369 715 L 383 706 L 382 764 L 407 722 L 413 725 L 424 783 L 464 835 L 434 755 L 475 782 L 428 704 L 447 713 L 478 749 L 516 753 L 489 741 L 532 722 L 485 728 L 461 692 L 501 689 L 480 680 L 517 670 L 502 662 L 570 641 L 551 641 L 608 611 L 611 620 L 625 597 L 676 564 L 667 559 L 715 537 L 704 529 L 721 523 L 705 502 L 738 527 L 754 589 L 769 526 L 774 583 L 779 574 L 785 586 L 771 620 L 554 830 L 513 885 L 499 923 L 577 828 L 734 692 L 798 625 L 810 593 L 789 548 L 871 538 L 899 523 L 914 503 L 914 481 L 893 453 L 823 413 L 868 391 L 860 376 L 822 357 L 867 329 L 874 313 L 790 288 L 819 262 L 815 250 L 736 241 L 767 160 L 766 112 Z M 747 111 L 752 116 L 754 121 L 753 148 L 748 173 L 739 199 L 730 217 L 721 231 L 710 244 L 710 236 L 734 187 L 743 151 L 741 151 L 736 165 L 729 179 L 723 187 L 718 185 L 710 178 L 709 179 L 718 195 L 718 199 L 710 208 L 693 194 L 692 195 L 702 209 L 706 218 L 703 229 L 700 227 L 691 213 L 674 194 L 645 172 L 655 166 L 683 156 L 710 143 L 732 128 L 746 114 Z M 280 126 L 286 141 L 302 164 L 320 180 L 338 191 L 320 203 L 301 223 L 290 212 L 281 197 L 279 197 L 284 213 L 295 231 L 290 241 L 287 239 L 278 223 L 272 206 L 269 190 L 270 156 L 273 142 L 278 128 Z M 368 182 L 378 175 L 409 161 L 439 153 L 466 149 L 495 147 L 534 148 L 558 151 L 587 158 L 628 177 L 647 191 L 667 211 L 691 248 L 707 289 L 706 290 L 695 276 L 681 248 L 661 219 L 643 201 L 630 191 L 609 179 L 591 172 L 576 168 L 570 169 L 583 187 L 591 204 L 603 247 L 602 253 L 586 248 L 559 246 L 561 217 L 557 212 L 550 212 L 533 218 L 498 238 L 494 212 L 484 187 L 474 178 L 460 172 L 443 169 L 422 169 L 401 172 L 380 178 L 370 183 Z M 486 195 L 490 207 L 489 217 L 482 200 L 476 192 L 475 193 L 479 199 L 485 216 L 490 239 L 490 247 L 482 254 L 478 249 L 470 215 L 465 202 L 461 198 L 451 194 L 440 192 L 418 192 L 397 196 L 372 205 L 344 222 L 332 233 L 324 244 L 318 256 L 315 267 L 314 293 L 321 325 L 321 329 L 319 329 L 313 320 L 304 299 L 301 284 L 301 262 L 304 250 L 311 236 L 332 213 L 350 200 L 366 191 L 383 184 L 415 176 L 437 175 L 459 179 L 475 185 Z M 435 215 L 438 219 L 441 228 L 442 239 L 422 243 L 421 241 L 425 230 Z M 460 220 L 463 228 L 463 237 L 448 239 L 448 232 Z M 603 267 L 590 278 L 571 288 L 560 292 L 546 294 L 545 293 L 561 283 L 562 282 L 560 281 L 531 293 L 503 308 L 490 317 L 468 338 L 451 363 L 441 372 L 429 376 L 421 374 L 415 368 L 414 360 L 417 352 L 432 336 L 441 320 L 462 291 L 492 260 L 509 246 L 530 232 L 548 223 L 551 224 L 547 245 L 541 261 L 542 262 L 559 258 L 572 258 L 594 262 Z M 412 225 L 417 235 L 417 243 L 405 249 L 391 253 L 390 251 L 399 235 L 408 225 Z M 369 233 L 378 256 L 367 262 L 359 264 L 358 263 L 363 244 L 367 234 Z M 465 256 L 466 268 L 464 273 L 453 284 L 423 289 L 397 296 L 357 313 L 334 325 L 332 323 L 332 318 L 334 314 L 358 300 L 363 293 L 363 289 L 359 287 L 333 299 L 328 300 L 327 298 L 339 286 L 356 275 L 389 260 L 411 253 L 426 250 L 455 249 L 460 251 Z M 609 255 L 610 254 L 627 257 L 646 263 L 673 276 L 693 291 L 691 292 L 648 271 L 630 265 L 615 262 L 611 259 Z M 718 260 L 721 258 L 735 256 L 773 256 L 791 258 L 799 261 L 773 277 L 749 289 L 728 289 L 723 271 Z M 855 318 L 781 360 L 849 386 L 797 405 L 756 408 L 719 392 L 748 376 L 725 370 L 731 362 L 712 362 L 759 348 L 743 345 L 763 336 L 702 345 L 660 370 L 705 373 L 659 397 L 701 413 L 692 421 L 663 418 L 692 441 L 701 482 L 683 462 L 688 482 L 668 466 L 685 490 L 658 482 L 679 504 L 652 499 L 670 514 L 637 509 L 659 528 L 626 533 L 648 542 L 609 549 L 622 562 L 593 561 L 610 574 L 576 576 L 597 587 L 582 587 L 587 594 L 554 596 L 580 611 L 536 603 L 546 613 L 532 613 L 545 621 L 511 617 L 522 629 L 489 617 L 513 642 L 475 630 L 486 649 L 462 639 L 477 660 L 435 637 L 452 660 L 425 647 L 435 671 L 417 660 L 420 668 L 393 643 L 395 671 L 372 643 L 373 664 L 337 601 L 417 582 L 474 594 L 488 568 L 540 553 L 589 503 L 601 515 L 603 448 L 631 433 L 587 426 L 554 443 L 580 440 L 537 497 L 461 529 L 405 565 L 334 586 L 309 607 L 272 568 L 257 539 L 274 543 L 243 509 L 243 489 L 253 480 L 298 484 L 291 474 L 380 442 L 356 475 L 407 438 L 444 458 L 443 494 L 456 468 L 450 449 L 426 430 L 390 431 L 376 420 L 462 394 L 461 411 L 506 426 L 506 434 L 567 390 L 620 376 L 587 365 L 587 348 L 603 341 L 540 339 L 477 358 L 506 338 L 550 328 L 495 335 L 541 304 L 584 293 L 664 302 L 625 331 L 673 311 L 741 301 Z M 452 392 L 417 401 L 383 414 L 374 414 L 366 408 L 374 402 L 367 396 L 365 392 L 363 379 L 361 375 L 358 392 L 355 398 L 352 400 L 335 385 L 322 378 L 284 370 L 262 361 L 247 348 L 245 345 L 245 341 L 249 337 L 254 336 L 279 336 L 296 338 L 327 345 L 355 358 L 356 357 L 347 348 L 336 342 L 357 328 L 390 312 L 414 304 L 441 299 L 441 303 L 430 330 L 425 336 L 418 338 L 411 345 L 407 355 L 407 371 L 411 380 L 417 385 L 409 387 L 399 384 L 392 376 L 390 365 L 385 353 L 385 376 L 388 383 L 392 387 L 404 392 L 439 389 Z M 542 349 L 548 348 L 556 353 L 558 361 L 555 365 L 549 366 L 540 359 L 539 354 Z M 564 349 L 570 350 L 576 355 L 576 361 L 572 366 L 569 364 L 563 352 Z M 498 367 L 508 366 L 512 381 L 517 389 L 524 395 L 535 401 L 530 407 L 523 412 L 512 416 L 494 416 L 485 412 L 478 404 L 476 395 L 480 383 L 489 373 Z M 280 387 L 280 391 L 275 394 L 262 393 L 252 389 L 257 385 L 269 381 L 275 381 Z M 289 386 L 296 385 L 313 388 L 326 393 L 335 401 L 325 403 L 303 412 L 294 414 L 290 403 Z M 706 403 L 710 402 L 728 406 L 753 416 L 758 421 L 761 427 L 761 436 L 756 447 L 753 450 L 752 449 L 751 437 L 746 428 L 719 414 Z M 346 417 L 353 417 L 358 422 L 359 429 L 356 433 L 350 433 L 344 428 L 343 421 Z M 313 419 L 318 417 L 329 418 L 333 432 L 340 442 L 340 444 L 336 448 L 324 450 L 315 443 L 309 431 L 309 425 Z M 771 418 L 785 424 L 812 444 L 808 447 L 775 455 L 780 458 L 784 463 L 789 480 L 788 482 L 757 475 L 751 472 L 747 467 L 747 464 L 760 454 L 767 444 L 770 434 Z M 805 422 L 830 430 L 862 446 L 877 456 L 893 472 L 899 483 L 900 495 L 896 505 L 890 512 L 872 524 L 847 532 L 810 536 L 787 535 L 784 533 L 786 531 L 793 529 L 829 527 L 850 523 L 862 519 L 874 513 L 882 505 L 886 497 L 885 482 L 881 475 L 872 465 L 849 448 L 805 424 Z M 701 431 L 704 428 L 714 424 L 731 424 L 742 433 L 745 441 L 744 449 L 739 455 L 733 457 L 711 457 L 707 445 L 701 434 Z M 715 463 L 731 462 L 740 467 L 744 476 L 745 483 L 744 496 L 741 503 L 731 494 L 718 477 L 714 469 Z M 580 469 L 583 473 L 584 479 L 583 488 L 579 497 L 576 500 L 573 500 L 567 490 L 567 483 Z M 755 486 L 761 492 L 764 498 L 764 504 L 754 526 L 753 520 Z M 559 489 L 564 493 L 566 499 L 565 510 L 557 518 L 548 518 L 544 514 L 542 506 Z M 537 512 L 545 522 L 545 531 L 540 540 L 529 548 L 525 548 L 520 543 L 519 551 L 514 557 L 504 560 L 496 559 L 493 555 L 493 551 L 515 534 L 517 537 L 518 531 Z M 475 536 L 479 544 L 479 569 L 476 579 L 470 585 L 465 586 L 458 583 L 453 578 L 448 566 L 447 551 L 457 541 L 469 536 Z M 437 571 L 434 575 L 429 576 L 423 574 L 417 568 L 432 561 L 435 564 Z" fill="#000000" fill-rule="evenodd" stroke="none"/>
<path d="M 437 265 L 434 265 L 431 268 L 432 273 L 436 273 L 439 270 L 439 267 Z M 755 93 L 702 132 L 632 162 L 557 138 L 474 135 L 399 151 L 348 180 L 307 148 L 284 110 L 269 115 L 259 141 L 253 189 L 277 255 L 278 320 L 236 326 L 225 344 L 252 374 L 239 396 L 272 408 L 286 437 L 272 462 L 232 474 L 227 514 L 270 594 L 301 622 L 322 621 L 348 688 L 360 688 L 369 715 L 383 706 L 382 764 L 407 722 L 413 725 L 424 783 L 464 835 L 434 755 L 475 782 L 428 704 L 447 713 L 478 749 L 516 753 L 489 741 L 532 722 L 485 728 L 461 692 L 501 689 L 480 680 L 517 670 L 502 662 L 570 641 L 551 641 L 608 611 L 611 620 L 625 597 L 676 564 L 667 559 L 715 537 L 704 529 L 721 523 L 705 502 L 738 527 L 754 589 L 769 526 L 774 583 L 779 574 L 785 586 L 771 620 L 554 830 L 513 885 L 499 923 L 577 828 L 734 692 L 798 625 L 810 593 L 789 548 L 871 538 L 899 523 L 914 503 L 914 481 L 893 453 L 823 413 L 868 391 L 860 376 L 822 357 L 867 329 L 874 313 L 790 288 L 819 262 L 815 250 L 736 241 L 767 160 L 766 112 Z M 747 111 L 752 116 L 754 121 L 753 148 L 748 173 L 739 199 L 730 217 L 721 231 L 710 244 L 710 236 L 734 187 L 743 151 L 741 151 L 736 165 L 729 179 L 723 187 L 718 185 L 710 178 L 709 179 L 718 195 L 718 199 L 710 208 L 693 194 L 692 195 L 702 209 L 706 218 L 703 229 L 700 227 L 691 213 L 674 194 L 645 172 L 655 166 L 683 156 L 710 143 L 732 128 L 746 114 Z M 280 126 L 286 141 L 302 164 L 320 180 L 338 191 L 320 203 L 301 223 L 290 212 L 281 197 L 279 197 L 284 213 L 295 231 L 290 241 L 287 239 L 278 223 L 272 206 L 269 190 L 270 156 L 273 142 L 278 128 Z M 368 182 L 378 175 L 409 161 L 439 153 L 466 149 L 495 147 L 534 148 L 558 151 L 587 158 L 628 177 L 647 191 L 667 211 L 691 248 L 707 289 L 706 290 L 695 276 L 681 248 L 661 219 L 643 201 L 630 191 L 609 179 L 591 172 L 576 168 L 570 169 L 583 187 L 591 204 L 603 247 L 602 253 L 586 248 L 559 246 L 561 217 L 557 212 L 550 212 L 533 218 L 498 238 L 494 212 L 484 187 L 474 178 L 460 172 L 443 169 L 422 169 L 401 172 L 380 178 L 370 183 Z M 486 195 L 490 207 L 489 217 L 482 200 L 476 192 L 475 193 L 479 199 L 485 216 L 490 239 L 490 247 L 482 254 L 478 249 L 470 215 L 465 202 L 461 198 L 451 194 L 440 192 L 418 192 L 397 196 L 372 205 L 344 222 L 332 233 L 324 244 L 318 256 L 315 267 L 314 293 L 321 325 L 321 329 L 319 329 L 313 320 L 304 299 L 301 284 L 301 262 L 304 250 L 311 236 L 332 213 L 350 200 L 366 191 L 383 184 L 415 176 L 437 175 L 459 179 L 475 185 Z M 435 215 L 438 219 L 441 228 L 442 239 L 422 243 L 421 241 L 425 230 Z M 460 220 L 463 228 L 463 237 L 448 239 L 448 232 Z M 603 267 L 590 278 L 571 288 L 560 292 L 546 294 L 545 293 L 561 283 L 562 282 L 560 281 L 531 293 L 503 308 L 490 317 L 468 338 L 451 363 L 441 372 L 429 376 L 421 374 L 415 368 L 414 360 L 417 352 L 432 336 L 441 320 L 462 291 L 492 260 L 509 246 L 530 232 L 548 223 L 551 224 L 547 245 L 541 261 L 542 262 L 559 258 L 572 258 L 594 262 Z M 412 225 L 417 235 L 417 243 L 405 249 L 391 253 L 390 251 L 399 235 L 408 225 Z M 369 233 L 378 256 L 367 262 L 359 264 L 358 263 L 363 244 L 367 234 Z M 465 256 L 466 268 L 464 273 L 453 284 L 423 289 L 397 296 L 357 313 L 334 325 L 332 323 L 332 318 L 334 314 L 358 300 L 363 293 L 363 289 L 359 287 L 333 299 L 328 300 L 327 298 L 339 286 L 356 275 L 389 260 L 411 253 L 426 250 L 455 249 L 460 251 Z M 609 255 L 610 254 L 627 257 L 646 263 L 673 276 L 693 291 L 691 292 L 648 271 L 630 265 L 615 262 L 611 259 Z M 718 260 L 721 258 L 735 256 L 773 256 L 791 258 L 799 261 L 773 277 L 749 289 L 728 289 L 723 271 Z M 855 318 L 781 360 L 849 386 L 797 405 L 756 408 L 719 392 L 748 376 L 725 370 L 731 362 L 712 362 L 759 348 L 743 345 L 763 336 L 702 345 L 660 370 L 705 373 L 659 397 L 701 413 L 692 421 L 663 418 L 692 441 L 701 482 L 683 462 L 688 482 L 668 466 L 685 490 L 658 482 L 679 504 L 652 499 L 670 514 L 637 509 L 659 528 L 626 533 L 648 542 L 609 549 L 622 562 L 593 561 L 610 574 L 576 576 L 597 587 L 582 587 L 587 594 L 554 596 L 580 611 L 536 603 L 546 613 L 532 613 L 545 621 L 511 617 L 522 629 L 489 617 L 513 642 L 475 630 L 486 649 L 462 639 L 477 660 L 435 637 L 452 660 L 425 647 L 435 671 L 417 660 L 420 668 L 393 643 L 395 671 L 372 643 L 373 664 L 337 601 L 417 582 L 474 594 L 488 568 L 540 553 L 589 503 L 601 515 L 603 448 L 631 433 L 587 426 L 554 443 L 580 440 L 537 497 L 461 529 L 405 565 L 334 586 L 309 607 L 272 568 L 257 539 L 274 543 L 243 509 L 243 489 L 253 480 L 298 484 L 291 474 L 380 442 L 356 475 L 407 438 L 444 458 L 443 494 L 456 468 L 450 449 L 426 430 L 390 431 L 376 420 L 462 394 L 461 411 L 506 426 L 506 434 L 567 390 L 620 376 L 587 365 L 587 348 L 603 341 L 540 339 L 477 358 L 506 338 L 550 328 L 495 335 L 541 304 L 584 293 L 664 302 L 625 331 L 673 311 L 741 301 Z M 452 392 L 417 401 L 383 414 L 374 414 L 366 408 L 374 402 L 367 396 L 365 392 L 363 379 L 361 375 L 358 392 L 355 398 L 352 400 L 335 385 L 322 378 L 284 370 L 262 361 L 247 348 L 245 345 L 245 341 L 249 337 L 254 336 L 279 336 L 296 338 L 327 345 L 355 358 L 356 357 L 347 348 L 336 342 L 357 328 L 390 312 L 414 304 L 441 299 L 441 303 L 430 330 L 425 336 L 418 338 L 411 345 L 407 355 L 407 371 L 411 380 L 417 385 L 409 387 L 399 384 L 392 376 L 390 365 L 385 353 L 385 376 L 388 383 L 392 387 L 404 392 L 439 389 Z M 542 349 L 548 348 L 556 353 L 558 361 L 555 365 L 549 366 L 540 359 L 539 354 Z M 564 349 L 570 350 L 576 355 L 576 361 L 572 366 L 569 364 L 563 352 Z M 498 367 L 508 366 L 512 381 L 517 389 L 524 395 L 535 401 L 530 407 L 523 412 L 512 416 L 494 416 L 485 412 L 478 404 L 476 395 L 480 383 L 489 373 Z M 280 387 L 280 391 L 275 394 L 262 393 L 252 389 L 257 385 L 269 381 L 275 381 Z M 289 386 L 296 385 L 313 388 L 326 393 L 335 401 L 325 403 L 303 412 L 294 414 L 290 403 Z M 706 403 L 710 402 L 728 406 L 753 416 L 758 421 L 761 427 L 761 436 L 756 447 L 753 450 L 752 449 L 751 437 L 746 428 L 719 414 Z M 346 417 L 353 417 L 358 422 L 359 429 L 356 433 L 350 433 L 344 428 L 343 421 Z M 313 419 L 318 417 L 329 418 L 333 432 L 340 442 L 340 444 L 336 448 L 324 450 L 315 443 L 309 431 L 309 425 Z M 771 418 L 785 424 L 812 444 L 808 447 L 775 455 L 780 458 L 784 463 L 789 480 L 788 482 L 757 475 L 751 472 L 747 467 L 747 464 L 760 454 L 767 444 L 770 434 Z M 805 422 L 830 430 L 862 446 L 877 456 L 893 472 L 899 483 L 900 495 L 896 505 L 890 512 L 872 524 L 847 532 L 810 536 L 787 535 L 784 533 L 786 531 L 793 529 L 829 527 L 850 523 L 862 519 L 874 513 L 882 505 L 886 497 L 885 482 L 881 475 L 872 465 L 849 448 L 805 424 Z M 701 431 L 704 428 L 714 424 L 731 424 L 742 433 L 745 441 L 744 449 L 739 455 L 733 457 L 711 457 L 707 445 L 701 434 Z M 715 463 L 731 462 L 740 467 L 744 476 L 745 483 L 744 496 L 741 503 L 731 494 L 718 477 L 714 469 Z M 580 469 L 583 473 L 584 479 L 583 488 L 579 497 L 576 500 L 573 500 L 567 490 L 567 483 Z M 755 486 L 761 492 L 764 498 L 764 504 L 754 526 L 753 520 Z M 559 489 L 564 493 L 566 499 L 565 510 L 557 518 L 548 518 L 544 514 L 542 506 Z M 537 512 L 545 522 L 545 531 L 540 540 L 529 548 L 525 548 L 520 543 L 519 551 L 514 557 L 504 560 L 496 559 L 493 555 L 493 551 L 515 534 L 517 537 L 518 531 Z M 475 536 L 479 544 L 479 569 L 476 579 L 470 585 L 465 586 L 458 583 L 453 578 L 448 566 L 447 551 L 457 541 L 469 536 Z M 437 571 L 434 575 L 429 576 L 423 574 L 417 568 L 432 561 L 435 564 Z" fill="#000000" fill-rule="evenodd" stroke="none"/>
<path d="M 755 93 L 702 132 L 632 162 L 557 138 L 474 135 L 399 151 L 348 180 L 307 148 L 284 110 L 269 115 L 259 141 L 253 189 L 277 255 L 278 320 L 236 326 L 225 344 L 252 374 L 239 396 L 272 408 L 286 437 L 272 462 L 232 474 L 227 514 L 270 594 L 301 622 L 322 621 L 348 688 L 360 688 L 369 715 L 383 706 L 382 764 L 407 722 L 413 725 L 424 783 L 464 835 L 434 755 L 475 782 L 428 704 L 447 713 L 478 749 L 516 753 L 489 741 L 532 722 L 485 728 L 461 692 L 501 689 L 480 680 L 517 670 L 502 662 L 570 641 L 551 641 L 608 611 L 611 620 L 625 597 L 676 564 L 667 559 L 715 537 L 704 529 L 721 523 L 705 502 L 738 527 L 754 589 L 769 526 L 774 583 L 779 574 L 785 586 L 771 620 L 554 830 L 513 885 L 499 923 L 577 828 L 734 692 L 798 625 L 810 593 L 789 548 L 871 538 L 899 523 L 914 503 L 914 481 L 893 453 L 823 413 L 868 391 L 860 376 L 822 357 L 867 329 L 874 313 L 790 288 L 819 262 L 815 250 L 736 241 L 767 160 L 766 112 Z M 747 111 L 752 116 L 754 121 L 753 148 L 748 173 L 739 199 L 730 217 L 721 231 L 710 244 L 710 236 L 734 187 L 743 151 L 741 151 L 736 165 L 729 179 L 723 187 L 718 185 L 710 178 L 709 179 L 718 195 L 718 199 L 710 208 L 693 194 L 692 195 L 702 209 L 706 218 L 703 229 L 700 227 L 691 213 L 674 194 L 645 172 L 655 166 L 683 156 L 710 143 L 732 128 L 746 114 Z M 280 126 L 286 141 L 302 164 L 320 180 L 338 191 L 320 203 L 301 223 L 290 212 L 281 197 L 279 197 L 284 213 L 295 231 L 290 241 L 287 239 L 278 223 L 272 206 L 269 190 L 270 156 L 273 142 L 278 128 Z M 368 182 L 378 175 L 409 161 L 439 153 L 466 149 L 495 147 L 534 148 L 558 151 L 587 158 L 628 177 L 647 191 L 667 211 L 691 248 L 707 289 L 706 290 L 695 276 L 681 248 L 661 219 L 643 201 L 630 191 L 609 179 L 591 172 L 576 168 L 570 169 L 583 187 L 591 204 L 603 247 L 602 253 L 586 248 L 559 246 L 561 217 L 557 212 L 550 212 L 533 218 L 498 238 L 494 212 L 484 187 L 474 178 L 460 172 L 443 169 L 422 169 L 401 172 L 380 178 L 370 183 Z M 486 195 L 490 207 L 489 217 L 482 200 L 476 192 L 475 193 L 479 199 L 485 216 L 490 239 L 490 247 L 482 254 L 478 249 L 470 215 L 465 202 L 461 198 L 451 194 L 440 192 L 418 192 L 397 196 L 372 205 L 344 222 L 332 233 L 324 244 L 318 256 L 315 267 L 314 293 L 321 325 L 321 329 L 319 329 L 313 320 L 304 299 L 301 284 L 301 262 L 304 250 L 311 236 L 332 213 L 350 200 L 366 191 L 383 184 L 415 176 L 437 175 L 459 179 L 475 185 Z M 435 215 L 438 219 L 441 228 L 442 239 L 422 243 L 421 241 L 425 230 Z M 460 220 L 463 228 L 463 237 L 448 239 L 448 232 Z M 603 267 L 590 278 L 571 288 L 560 292 L 546 294 L 545 293 L 561 283 L 562 282 L 560 281 L 531 293 L 503 308 L 490 317 L 468 338 L 451 363 L 441 372 L 429 376 L 421 374 L 415 368 L 414 360 L 417 352 L 432 336 L 441 320 L 462 291 L 492 260 L 509 246 L 530 232 L 548 223 L 551 224 L 547 245 L 541 261 L 542 262 L 559 258 L 572 258 L 594 262 Z M 412 225 L 417 235 L 417 243 L 405 249 L 391 253 L 390 251 L 399 235 L 408 225 Z M 369 233 L 378 256 L 367 262 L 359 264 L 358 263 L 363 244 L 367 234 Z M 465 256 L 466 268 L 464 273 L 453 284 L 423 289 L 397 296 L 357 313 L 334 325 L 332 323 L 332 318 L 334 314 L 358 300 L 363 293 L 363 289 L 359 287 L 333 299 L 328 300 L 327 298 L 339 286 L 356 275 L 389 260 L 411 253 L 426 250 L 455 249 L 460 251 Z M 609 255 L 610 254 L 627 257 L 646 263 L 673 276 L 693 291 L 691 292 L 648 271 L 630 265 L 615 262 L 611 259 Z M 718 260 L 721 258 L 735 256 L 773 256 L 791 258 L 799 261 L 773 277 L 749 289 L 728 289 L 723 271 Z M 855 318 L 781 360 L 849 386 L 797 405 L 756 408 L 719 392 L 748 376 L 725 370 L 731 362 L 712 362 L 759 348 L 743 345 L 763 336 L 702 345 L 660 370 L 705 373 L 659 397 L 701 413 L 692 421 L 663 418 L 692 441 L 701 482 L 683 462 L 688 482 L 668 466 L 685 490 L 658 482 L 679 504 L 652 499 L 670 514 L 637 509 L 659 528 L 626 533 L 648 542 L 609 549 L 622 562 L 593 561 L 610 574 L 576 576 L 597 587 L 582 587 L 587 594 L 554 596 L 580 611 L 536 603 L 546 613 L 532 613 L 545 621 L 511 617 L 522 629 L 489 617 L 513 642 L 475 630 L 486 649 L 462 639 L 477 660 L 435 637 L 452 660 L 425 647 L 435 671 L 417 660 L 420 668 L 393 643 L 395 671 L 372 643 L 373 664 L 337 601 L 417 582 L 474 594 L 488 568 L 540 553 L 589 503 L 601 515 L 603 448 L 631 433 L 587 426 L 554 443 L 580 440 L 537 497 L 461 529 L 405 565 L 334 586 L 309 607 L 272 568 L 257 539 L 274 543 L 243 509 L 243 489 L 253 480 L 298 484 L 291 474 L 380 442 L 356 475 L 407 438 L 444 458 L 443 494 L 456 468 L 450 449 L 426 430 L 390 431 L 376 420 L 462 394 L 461 411 L 506 426 L 506 434 L 567 390 L 620 376 L 587 365 L 587 348 L 603 341 L 540 339 L 477 358 L 506 338 L 550 328 L 495 335 L 541 304 L 584 293 L 664 302 L 625 331 L 673 311 L 741 301 Z M 452 392 L 417 401 L 383 414 L 374 414 L 366 408 L 374 402 L 367 396 L 365 392 L 363 379 L 361 375 L 358 392 L 355 398 L 352 400 L 335 385 L 322 378 L 284 370 L 262 361 L 247 348 L 245 345 L 245 341 L 249 337 L 254 336 L 279 336 L 296 338 L 327 345 L 355 358 L 356 357 L 347 348 L 336 342 L 357 328 L 390 312 L 414 304 L 441 299 L 441 303 L 430 330 L 425 336 L 418 338 L 411 345 L 407 355 L 407 371 L 411 380 L 417 385 L 409 387 L 399 384 L 392 376 L 390 365 L 385 353 L 385 376 L 388 383 L 392 387 L 404 392 L 439 389 Z M 542 349 L 548 348 L 556 353 L 558 361 L 555 365 L 549 366 L 540 359 L 539 354 Z M 564 349 L 570 350 L 576 355 L 576 361 L 572 366 L 569 364 L 563 352 Z M 498 367 L 508 366 L 512 381 L 517 389 L 524 395 L 535 401 L 530 407 L 523 412 L 512 416 L 494 416 L 485 412 L 478 404 L 476 395 L 480 383 L 489 373 Z M 280 387 L 280 391 L 275 394 L 262 393 L 252 389 L 257 385 L 269 381 L 275 381 Z M 289 386 L 296 385 L 313 388 L 326 393 L 335 401 L 325 403 L 303 412 L 294 414 L 290 403 Z M 706 403 L 710 402 L 728 406 L 753 416 L 758 421 L 761 427 L 761 436 L 756 447 L 753 450 L 752 449 L 751 437 L 746 428 L 719 414 Z M 346 417 L 353 417 L 358 422 L 359 429 L 356 433 L 350 433 L 344 428 L 343 421 Z M 313 419 L 318 417 L 329 418 L 333 432 L 340 442 L 340 444 L 336 448 L 324 450 L 315 443 L 309 431 L 309 425 Z M 771 418 L 785 424 L 812 444 L 808 447 L 775 455 L 780 458 L 784 463 L 789 480 L 788 482 L 757 475 L 751 472 L 747 467 L 747 464 L 760 454 L 767 444 L 770 434 Z M 805 422 L 830 430 L 862 446 L 877 456 L 893 472 L 899 483 L 900 495 L 896 505 L 890 512 L 872 524 L 847 532 L 810 536 L 787 535 L 784 533 L 786 531 L 793 529 L 829 527 L 850 523 L 862 519 L 874 513 L 882 505 L 886 497 L 885 482 L 881 475 L 872 465 L 849 448 L 805 424 Z M 701 431 L 704 428 L 714 424 L 731 424 L 742 433 L 745 441 L 744 449 L 739 455 L 733 457 L 711 457 L 707 445 L 701 434 Z M 715 463 L 731 462 L 740 467 L 744 476 L 745 483 L 744 496 L 741 503 L 731 494 L 718 477 L 714 469 Z M 580 469 L 583 473 L 584 479 L 583 488 L 579 497 L 576 500 L 573 500 L 567 490 L 567 483 Z M 755 486 L 761 492 L 764 498 L 764 504 L 754 526 L 753 520 Z M 559 489 L 564 493 L 566 499 L 565 510 L 557 518 L 548 518 L 544 514 L 542 506 Z M 537 512 L 545 522 L 545 531 L 540 540 L 529 548 L 525 548 L 520 543 L 519 551 L 514 557 L 504 560 L 496 559 L 493 555 L 493 551 L 515 534 L 517 537 L 518 531 Z M 475 536 L 479 544 L 479 569 L 476 579 L 470 585 L 465 586 L 458 583 L 453 578 L 448 566 L 447 551 L 457 541 L 469 536 Z M 437 571 L 434 575 L 429 576 L 423 574 L 417 568 L 432 561 L 435 564 Z" fill="#000000" fill-rule="evenodd" stroke="none"/>
</svg>